<svg xmlns="http://www.w3.org/2000/svg" width="256" height="256" viewBox="0 0 100 100"><rect width="100" height="100" rx="20" fill="#7d6ee7"></rect><path fill="#fff" d="M33.56 75.59Q31.34 75.59 30.38 74.60Q29.42 73.61 29.42 70.85L29.42 70.85Q29.42 68.99 29.78 66.35Q30.14 63.71 31.04 58.37L31.04 58.37Q31.16 57.65 32.00 52.52Q32.84 47.39 33.50 41.75L33.50 41.75Q34.10 36.95 34.10 34.55L34.10 34.55Q34.10 31.85 32.12 31.85L32.12 31.85Q30.62 31.85 28.37 33.44Q26.12 35.03 23.54 38.51L23.54 38.51Q22.70 39.65 21.68 39.65L21.68 39.65Q20.84 39.65 20.21 38.84Q19.58 38.03 19.58 37.01L19.58 37.01Q19.58 35.99 19.94 35.06Q20.30 34.13 21.26 32.81L21.26 32.81Q24.20 28.79 27.80 26.60Q31.40 24.41 35.36 24.41L35.36 24.41Q38.66 24.41 40.31 26.45Q41.96 28.49 41.96 32.39L41.96 32.39Q41.96 35.87 41 42.47L41 42.47Q44 33.59 48.62 29.00Q53.24 24.41 59.48 24.41L59.48 24.41Q64.40 24.41 66.89 27.20Q69.38 29.99 69.38 34.67L69.38 34.67Q69.38 37.31 68.60 41.09L68.60 41.09L64.94 58.25Q64.34 61.25 64.34 63.41L64.34 63.41Q64.34 65.93 65.51 67.19Q66.68 68.45 68.78 68.45L68.78 68.45Q70.76 68.45 72.65 67.13Q74.54 65.81 77.12 62.75L77.12 62.75Q77.84 61.91 78.74 61.91L78.74 61.91Q79.52 61.91 79.97 62.63Q80.42 63.35 80.42 64.61L80.42 64.61Q80.42 66.95 79.28 68.33L79.28 68.33Q76.16 72.11 73.10 73.85Q70.04 75.59 66.68 75.59L66.68 75.59Q61.58 75.59 58.70 72.56Q55.82 69.53 55.82 64.43L55.82 64.43Q55.82 62.45 56.15 60.11Q56.48 57.77 57.26 54.17L57.26 54.17L59.66 43.19Q59.78 42.65 60.08 41.27Q60.38 39.89 60.56 38.66Q60.74 37.43 60.74 36.23L60.74 36.23Q60.74 34.31 59.66 33.17Q58.58 32.03 56.60 32.03L56.60 32.03Q53 32.03 49.40 35.87Q45.80 39.71 42.74 48.26Q39.68 56.81 37.94 70.13L37.94 70.13Q37.52 73.19 36.71 74.39Q35.90 75.59 33.56 75.59L33.56 75.59Z"></path></svg>